IKResults
version=1
nRows=11
nColumns=40
inDegrees=yes

Units are S.I. units (second, meters, Newtons, ...)
Angles are in degrees.

endheader
time	pelvis_tilt	pelvis_list	pelvis_rotation	pelvis_tx	pelvis_ty	pelvis_tz	hip_flexion_r	hip_adduction_r	hip_rotation_r	knee_angle_r	knee_angle_r_beta	ankle_angle_r	subtalar_angle_r	mtp_angle_r	hip_flexion_l	hip_adduction_l	hip_rotation_l	knee_angle_l	knee_angle_l_beta	ankle_angle_l	subtalar_angle_l	mtp_angle_l	lumbar_extension	lumbar_bending	lumbar_rotation	arm_flex_r	arm_add_r	arm_rot_r	elbow_flex_r	pro_sup_r	wrist_flex_r	wrist_dev_r	arm_flex_l	arm_add_l	arm_rot_l	elbow_flex_l	pro_sup_l	wrist_flex_l	wrist_dev_l
      0.77000000	     17.40034800	      0.84996595	      0.41973428	     -0.26587013	      0.95923520	      1.46861308	    -20.04154783	      1.10223115	    -11.96279776	    -13.81619399	     -0.24113808	     10.45849373	     -0.63943218	     -1.35196586	     -5.47184419	      1.59811728	      9.35299962	    -26.60927936	     -0.46441954	     11.75520077	     13.84022339	      3.96599192	    -25.01871975	     -0.40486472	      1.05624352	      0.65878283	    -11.65683028	      3.43140260	     28.49579041	     89.95437384	      0.00000000	      0.00000000	     -0.74014398	      9.28460312	     10.18003147	     17.19949584	     89.95437384	      0.00000000	      0.00000000
      0.78000000	     17.09770847	      0.90763815	      0.63836594	     -0.26066493	      0.95831196	      1.46837323	    -19.97625580	      1.11530383	    -12.17652398	    -14.03214104	     -0.24490706	     10.63485509	     -0.83004321	     -1.34654734	     -4.27489644	      1.61777248	      9.92231813	    -25.92318311	     -0.45244490	     11.56024824	     13.42308341	      3.85856536	    -24.73526283	     -0.41277205	      0.93957794	      0.79451014	    -11.67808697	      3.41258517	     28.80108208	     89.95437384	      0.00000000	      0.00000000	     -1.11393834	      9.31171642	     10.09868829	     17.17303419	     89.95437384	      0.00000000	      0.00000000
      0.79000000	     17.44515012	      1.38144418	      0.28441746	     -0.25446258	      0.95854144	      1.46878081	    -20.92238390	      0.60478332	    -11.62120744	    -13.74469134	     -0.23989012	     10.77852573	     -1.35464978	     -1.25964623	     -4.53059052	      1.15673054	     11.23078141	    -23.94614881	     -0.41793914	     10.12526818	     11.17134518	      2.83103819	    -25.04407276	     -1.08254147	      1.20903431	      0.78401556	    -11.67315893	      3.37616915	     29.18172792	     89.95437384	      0.00000000	      0.00000000	     -1.41949248	      9.32524417	     10.24510702	     17.02997021	     89.95437384	      0.00000000	      0.00000000
      0.80000000	     17.05576112	      1.40674110	      0.54546822	     -0.24934089	      0.95747055	      1.46857475	    -20.73449588	      0.65688571	    -11.83660294	    -14.01438522	     -0.24459716	     10.94201663	     -1.47712802	     -1.25975160	     -3.23105486	      1.21117678	     11.65654317	    -23.31914312	     -0.40699583	      9.90821137	     10.69055262	      2.73523762	    -24.71292285	     -1.08285580	      1.06016675	      0.90732461	    -11.64760981	      3.36866361	     29.47206356	     89.95437384	      0.00000000	      0.00000000	     -1.73681951	      9.36171849	     10.14622146	     17.05776934	     89.95437384	      0.00000000	      0.00000000
      0.81000000	     17.27342986	      1.85927349	      0.29958018	     -0.24313954	      0.95746307	      1.46870466	    -21.49758125	      0.16718949	    -11.44655322	    -13.81495731	     -0.24111649	     11.19308479	     -1.75786476	     -1.18436069	     -3.31244135	      0.80086123	     13.01837217	    -21.52694217	     -0.37571602	      8.52354199	      7.62326443	      1.55435473	    -24.88603341	     -1.68782892	      1.23985399	      0.95484284	    -11.59807982	      3.18918093	     29.69598262	     89.95437384	      0.00000000	      0.00000000	     -2.07241487	      9.40401227	      9.65789617	     16.96808690	     89.95437384	      0.00000000	      0.00000000
      0.82000000	     16.90063845	      1.86206700	      0.57851723	     -0.23793896	      0.95633861	      1.46847626	    -21.31965014	      0.26486230	    -11.61369540	    -14.09120672	     -0.24593795	     11.38304208	     -1.85912987	     -1.19464932	     -2.09552950	      0.84455183	     13.41123853	    -20.89270978	     -0.36464658	      8.45304370	      7.24894454	      1.47633606	    -24.56797798	     -1.66994970	      1.06357593	      1.07367468	    -11.54590488	      3.18339195	     29.96031519	     89.95437384	      0.00000000	      0.00000000	     -2.33298099	      9.41756153	      9.53516683	     17.00655900	     89.95437384	      0.00000000	      0.00000000
      0.83000000	     17.05094694	      2.12800621	      0.28184523	     -0.23159903	      0.95605799	      1.46871971	    -22.05569437	      0.03228466	    -10.60031173	    -13.78127507	     -0.24052863	     11.57600140	     -2.92903094	     -0.92762740	     -2.00245519	      0.83965309	     15.73238058	    -19.39406548	     -0.33849030	      6.81508396	      3.11799078	     -5.87487784	    -24.65265507	     -2.10669629	      1.34152425	      1.07488842	    -11.52811325	      3.05659961	     30.19599293	     89.95437384	      0.00000000	      0.00000000	     -2.65100871	      9.43010368	      9.12332212	     17.01147238	     89.95437384	      0.00000000	      0.00000000
      0.84000000	     16.78880307	      2.40658113	      0.36677898	     -0.22611162	      0.95515659	      1.46827143	    -22.01911140	     -0.24614828	    -10.51939944	    -14.06856966	     -0.24554286	     11.93594574	     -3.01258893	     -0.96038122	     -1.26073080	      0.45155085	     16.02443313	    -18.24860035	     -0.31849816	      6.43015233	      1.95529396	     -5.92286672	    -24.43012771	     -2.41407935	      1.24939877	      1.17063019	    -11.44960574	      2.89839228	     30.39230188	     89.95437384	      0.00000000	      0.00000000	     -2.84207999	      9.40001883	      8.89978033	     16.98811999	     89.95437384	      0.00000000	      0.00000000
      0.85000000	     16.91269564	      2.63019601	      0.12726447	     -0.21995621	      0.95467307	      1.46825938	    -22.50229238	     -0.57348830	    -10.30561494	    -14.20994985	     -0.24801041	     12.09814395	     -3.08962884	     -1.24509741	     -0.95722177	      0.39006656	     18.02855286	    -17.33195534	     -0.30249969	      5.44337530	     -1.06996995	     -6.59671740	    -24.55291756	     -2.78022206	      1.46882242	      1.14718443	    -11.45539943	      2.81856322	     30.73318024	     89.95437384	      0.00000000	      0.00000000	     -3.17908898	      9.41051081	      8.29102431	     17.21229355	     89.95437384	      0.00000000	      0.00000000
      0.86000000	     16.62592101	      2.83119719	      0.13518128	     -0.21431954	      0.95362741	      1.46790843	    -22.45501763	     -0.80866740	    -10.19779906	    -14.48614205	     -0.25283087	     12.40137144	     -3.14428005	     -1.32360590	     -0.15192255	      0.07485747	     18.21472469	    -16.48433052	     -0.28770584	      5.21326246	     -1.90455548	     -6.64774500	    -24.30482134	     -3.04266263	      1.37793187	      1.26279527	    -11.36843553	      2.75697886	     30.88880472	     89.95437384	      0.00000000	      0.00000000	     -3.39744083	      9.34644736	      8.21636743	     17.18719293	     89.95437384	      0.00000000	      0.00000000
      0.87000000	     16.66609376	      3.12882931	     -0.00688959	     -0.20848316	      0.95305805	      1.46755533	    -22.78896731	     -1.19351892	    -10.08597945	    -14.71977969	     -0.25690862	     12.74202679	     -3.30368738	     -1.42696868	      0.10084761	     -0.31150395	     19.27065784	    -15.37222484	     -0.26829594	      4.71061212	     -3.25377622	     -6.91761941	    -24.41324473	     -3.44820887	      1.50463743	      1.30152728	    -11.34063053	      2.66689912	     31.12095382	     89.95437384	      0.00000000	      0.00000000	     -3.50269522	      9.27583723	      8.16615386	     17.22567590	     89.95437384	      0.00000000	      0.00000000
